<?xml version="1.0" standalone="no"?>
<!DOCTYPE svg PUBLIC "-//W3C//DTD SVG 20010904//EN"
 "http://www.w3.org/TR/2001/REC-SVG-20010904/DTD/svg10.dtd">
<svg version="1.0" xmlns="http://www.w3.org/2000/svg"
 width="512.000000pt" height="512.000000pt" viewBox="0 0 512.000000 512.000000"
 preserveAspectRatio="xMidYMid meet">
<metadata>
Created by potrace 1.14, written by Peter Selinger 2001-2017
</metadata>
<g transform="translate(0.000000,512.000000) scale(0.100000,-0.100000)"
fill="#000000" stroke="none">
<path d="M1057 4563 c-4 -3 -7 -50 -7 -104 0 -68 -4 -99 -12 -102 -10 -4 -10
-6 0 -6 6 -1 12 -13 12 -27 0 -21 -4 -25 -17 -20 -15 5 -15 4 1 -9 14 -11 16
-15 5 -15 -9 0 -10 -3 -4 -8 14 -9 17 -55 4 -47 -5 4 -9 1 -9 -4 0 -6 4 -11 9
-11 13 0 11 -63 -3 -72 -8 -5 -7 -8 2 -8 6 0 12 -7 12 -16 0 -9 -5 -12 -12 -8
-7 5 -8 3 -2 -7 13 -21 14 -109 0 -109 -6 0 -5 -4 3 -9 13 -8 13 -12 0 -27 -9
-11 -9 -15 -1 -10 6 4 12 3 12 -2 0 -17 -13 -22 -29 -9 -14 11 -14 10 -2 -5 7
-10 17 -15 22 -12 5 3 9 0 9 -5 0 -6 -6 -11 -12 -11 -10 0 -10 -2 -1 -8 18
-11 11 -77 -8 -76 -9 1 -16 -5 -16 -12 0 -9 5 -10 19 -3 12 6 18 6 18 -1 0 -5
-6 -10 -12 -10 -9 0 -9 -3 1 -9 13 -8 13 -12 0 -27 -9 -11 -9 -15 -1 -10 6 4
12 2 12 -3 0 -6 -6 -11 -12 -11 -9 0 -8 -4 2 -10 14 -9 7 -14 -13 -11 -5 1 -6
-3 -2 -9 3 -6 11 -8 16 -5 5 4 9 -3 9 -15 0 -12 -4 -19 -8 -16 -5 3 -9 -1 -9
-9 0 -8 4 -12 9 -9 4 3 8 -2 8 -11 0 -10 -5 -13 -12 -9 -10 6 -10 5 -1 -7 14
-18 13 -101 -2 -111 -6 -5 -6 -8 3 -8 6 0 12 -5 12 -11 0 -5 -5 -7 -12 -3 -8
5 -8 3 -2 -7 13 -21 14 -93 0 -101 -8 -6 -8 -8 2 -8 6 0 12 -7 12 -16 0 -8 -4
-13 -8 -10 -5 3 -9 -1 -9 -9 0 -8 4 -12 9 -9 16 10 8 -9 -9 -22 -16 -13 -16
-13 -1 -8 13 4 16 0 15 -15 -1 -15 -6 -20 -17 -16 -9 3 -7 -1 5 -10 17 -14 18
-17 5 -25 -10 -7 -11 -10 -2 -10 6 0 12 -5 12 -11 0 -5 -5 -7 -11 -3 -7 4 -7
-1 1 -16 10 -18 10 -21 -2 -14 -10 6 -10 4 1 -10 13 -15 13 -19 0 -27 -10 -6
-10 -9 -1 -9 6 0 12 -5 12 -11 0 -5 -6 -7 -12 -3 -9 5 -9 2 1 -9 9 -11 10 -17
2 -17 -6 0 -11 -5 -11 -11 0 -5 4 -8 9 -4 10 6 7 -27 -4 -45 -3 -6 -1 -10 6
-10 8 0 9 -4 0 -13 -8 -10 -7 -17 1 -25 9 -9 9 -12 -1 -12 -11 0 -11 -3 -1
-15 10 -12 10 -15 -1 -15 -12 0 -12 -2 -1 -9 17 -11 17 -21 0 -32 -10 -7 -10
-9 2 -9 13 0 13 -1 0 -10 -8 -5 -10 -10 -4 -10 6 0 11 -7 11 -15 0 -8 -5 -15
-11 -15 -6 0 -5 -4 3 -9 9 -6 10 -11 2 -15 -6 -4 -11 -12 -11 -17 0 -6 3 -8 8
-6 8 6 8 -140 -1 -149 -3 -4 -1 -16 5 -27 9 -17 8 -19 -7 -13 -14 5 -15 3 -8
-6 10 -12 10 -67 3 -455 -2 -82 -7 -123 -14 -123 -7 0 -7 -3 -1 -8 16 -11 12
-76 -5 -90 -8 -8 -10 -11 -4 -8 12 6 26 -28 17 -38 -3 -2 -7 -64 -9 -138 -4
-132 -8 -234 -19 -398 -9 -152 -25 -370 -30 -420 -2 -19 -7 -73 -10 -120 -4
-47 -9 -88 -12 -92 -2 -5 2 -8 9 -9 7 0 22 -2 33 -4 11 -2 39 -5 63 -6 24 -2
46 -7 49 -12 3 -5 10 -3 14 4 8 11 12 10 24 -5 13 -18 15 -18 15 -3 0 12 13 3
43 -28 24 -25 50 -45 58 -45 12 0 12 2 0 9 -9 6 -10 11 -2 15 6 4 8 12 5 18
-4 6 2 8 17 4 21 -6 22 -6 6 4 -19 12 -32 7 -32 -13 0 -5 -6 -12 -14 -15 -8
-3 -11 0 -7 7 4 6 2 10 -4 9 -6 -2 -18 6 -26 18 -14 21 -14 21 38 16 29 -2 76
-5 103 -5 28 -1 53 -6 57 -11 4 -6 13 -4 24 5 16 13 17 12 10 -6 -6 -16 -5
-18 5 -7 18 17 93 17 83 -1 -5 -8 -2 -7 10 2 22 19 48 -2 27 -22 -12 -10 -13
-8 -7 8 6 18 5 19 -7 3 -8 -10 -17 -15 -20 -11 -4 3 -7 1 -7 -6 0 -6 8 -11 18
-9 10 2 16 -2 14 -10 -1 -8 2 -11 8 -7 6 3 8 11 5 16 -4 5 -1 9 4 9 6 0 11 8
11 18 0 15 7 19 34 17 18 -1 38 -5 45 -9 6 -4 11 -1 11 6 0 9 3 9 10 -2 16
-25 11 -33 -13 -17 -19 12 -24 12 -36 0 -11 -12 -15 -12 -28 4 -13 17 -14 17
-5 -2 5 -11 7 -26 4 -34 -2 -7 5 -4 18 9 13 13 28 19 38 15 30 -12 37 -10 36
8 -2 22 23 22 29 0 4 -16 5 -16 6 -1 1 10 9 16 20 15 11 0 17 -5 15 -9 -3 -4
0 -8 5 -8 6 0 11 5 11 10 0 6 5 10 11 10 5 0 7 -5 4 -10 -3 -6 -1 -10 4 -10 6
0 11 4 11 8 0 4 11 8 25 8 20 0 22 -2 12 -15 -10 -12 -9 -13 13 -1 34 19 63
21 49 4 -7 -9 -6 -14 3 -20 7 -4 10 -4 6 1 -12 13 35 33 54 23 11 -5 26 -5 37
2 11 5 22 6 25 2 3 -5 28 -8 56 -6 38 2 49 -1 42 -9 -11 -15 -12 -48 -1 -41 5
2 6 11 3 18 -9 22 16 30 93 31 58 0 73 -3 74 -15 0 -13 1 -13 7 0 9 20 72 21
73 0 0 -10 3 -8 9 5 5 11 9 15 9 8 1 -8 10 -9 31 -3 25 7 30 6 31 -8 0 -14 2
-13 9 3 5 11 9 15 9 10 1 -6 20 -10 44 -10 30 0 41 -4 39 -13 -1 -8 2 -11 8
-7 6 3 8 11 5 16 -4 5 18 9 50 9 42 0 54 -3 49 -13 -6 -9 -5 -9 7 0 20 16 122
16 113 0 -5 -8 -3 -8 7 0 7 7 29 13 48 13 27 0 32 -3 21 -10 -9 -6 -10 -10 -3
-10 6 0 14 4 17 9 8 13 118 11 135 -3 11 -8 13 -8 7 2 -5 8 -1 12 13 12 10 0
22 -6 24 -12 4 -10 6 -10 6 0 1 6 14 12 29 12 15 0 34 -6 41 -12 11 -10 13
-10 7 -1 -5 9 0 13 13 13 10 0 22 -6 24 -12 4 -10 6 -10 6 0 1 6 12 12 26 12
14 0 25 -6 25 -12 0 -9 4 -8 10 2 8 13 13 13 31 2 11 -8 18 -9 14 -3 -3 7 2
11 14 11 10 0 22 -6 24 -12 4 -10 6 -10 6 0 1 8 20 12 59 12 33 0 64 -5 71
-12 11 -11 12 -10 6 0 -5 11 10 13 78 11 46 -1 89 1 96 5 6 4 11 0 11 -9 0 -9
5 -13 10 -10 6 4 7 11 4 17 -4 7 -2 8 5 4 6 -4 9 -18 7 -32 -3 -15 -1 -22 5
-18 6 3 8 8 5 11 -3 3 0 15 5 26 9 16 13 17 21 6 5 -8 11 -10 14 -4 7 17 73 9
95 -11 17 -16 22 -16 29 -4 6 8 10 20 10 25 0 11 20 -16 20 -28 0 -5 -5 -5
-12 -1 -7 4 -8 3 -4 -5 4 -6 11 -9 16 -6 4 3 10 0 12 -7 3 -7 7 -5 11 6 4 10
3 15 -3 11 -13 -8 -13 5 0 25 5 8 10 10 10 3 0 -6 8 -10 18 -8 62 13 82 13 82
4 0 -6 -5 -7 -11 -3 -8 5 -8 1 0 -14 6 -12 17 -24 24 -28 9 -6 9 -4 -1 8 -28
35 -7 43 116 43 64 -1 122 1 128 3 12 3 12 72 -1 262 -3 47 -8 150 -11 230 -3
80 -7 192 -9 250 -12 280 -15 369 -19 544 -3 103 -7 191 -10 193 -3 3 -1 14 5
24 5 11 6 19 2 19 -4 0 -9 39 -10 88 -1 84 -10 267 -13 267 -7 0 -6 36 1 40 5
3 3 15 -4 26 -10 16 -9 21 3 29 11 7 12 10 2 10 -8 0 -12 6 -9 13 2 6 0 22 -4
35 -5 14 -5 22 2 22 6 0 8 4 4 9 -3 6 -7 35 -9 65 -2 30 -7 60 -11 65 -3 6 0
11 7 11 8 0 9 3 3 8 -13 8 -13 22 -1 41 6 9 5 12 -1 8 -6 -4 -13 4 -15 18 -3
14 -1 25 5 25 5 0 4 7 -3 15 -11 14 -7 19 13 16 4 0 7 4 7 10 0 6 -7 8 -16 5
-13 -5 -15 -2 -11 13 3 11 0 22 -7 25 -8 3 -7 7 3 14 8 6 9 11 3 13 -13 5 -29
72 -28 111 1 14 -1 25 -5 22 -10 -6 -21 45 -13 58 4 7 3 8 -4 4 -7 -4 -12 -3
-12 3 0 5 -5 22 -12 38 -6 15 -12 30 -13 33 -27 76 -75 140 -198 259 -53 52
-93 99 -90 104 3 6 2 7 -4 4 -5 -4 -163 145 -349 330 -352 349 -408 396 -536
446 -81 32 -208 67 -243 67 -14 0 -25 4 -25 8 0 4 -15 9 -33 10 -18 1 -44 5
-57 9 -33 9 -1475 15 -1483 6z m2793 -3934 c0 -15 -18 -19 -23 -6 -3 8 1 14 9
14 8 0 14 -4 14 -8z"/>
<path d="M993 4365 c0 -8 4 -12 9 -9 5 3 6 10 3 15 -9 13 -12 11 -12 -6z"/>
<path d="M986 4318 c3 -5 10 -6 15 -3 13 9 11 12 -6 12 -8 0 -12 -4 -9 -9z"/>
<path d="M975 4199 c3 -4 13 -6 23 -5 9 2 21 -2 25 -8 6 -7 7 -6 5 4 -3 8 -16
15 -31 15 -14 1 -24 -2 -22 -6z"/>
<path d="M976 4121 c8 -9 44 -11 44 -3 0 4 -11 8 -25 8 -13 0 -22 -2 -19 -5z"/>
<path d="M987 4079 c7 -7 15 -10 18 -7 3 3 -2 9 -12 12 -14 6 -15 5 -6 -5z"/>
<path d="M995 3982 c3 -3 0 -10 -5 -17 -7 -8 -5 -12 5 -12 8 0 13 3 10 5 -3 3
0 10 5 17 7 8 5 12 -5 12 -8 0 -13 -3 -10 -5z"/>
<path d="M1020 3849 c0 -5 -6 -7 -12 -3 -7 4 -9 3 -5 -1 13 -15 36 -14 30 1
-6 17 -13 18 -13 3z"/>
<path d="M975 3780 c3 -5 8 -10 11 -10 2 0 4 5 4 10 0 6 -5 10 -11 10 -5 0 -7
-4 -4 -10z"/>
<path d="M999 3733 c-13 -16 -12 -17 4 -4 9 7 17 15 17 17 0 8 -8 3 -21 -13z"/>
<path d="M970 3699 c0 -5 5 -7 10 -4 6 3 10 8 10 11 0 2 -4 4 -10 4 -5 0 -10
-5 -10 -11z"/>
<path d="M996 3682 c-3 -5 1 -9 9 -9 8 0 12 4 9 9 -3 4 -7 8 -9 8 -2 0 -6 -4
-9 -8z"/>
<path d="M1025 3600 c-3 -5 -1 -10 4 -10 6 0 11 5 11 10 0 6 -2 10 -4 10 -3 0
-8 -4 -11 -10z"/>
<path d="M1019 3568 c7 -9 9 -23 5 -30 -6 -10 -4 -11 7 0 11 10 10 15 -6 30
-17 15 -18 15 -6 0z"/>
<path d="M1006 3442 c-3 -5 1 -9 9 -9 8 0 12 4 9 9 -3 4 -7 8 -9 8 -2 0 -6 -4
-9 -8z"/>
<path d="M995 3380 c3 -5 8 -10 11 -10 2 0 4 5 4 10 0 6 -5 10 -11 10 -5 0 -7
-4 -4 -10z"/>
<path d="M993 3325 c0 -8 4 -12 9 -9 5 3 6 10 3 15 -9 13 -12 11 -12 -6z"/>
<path d="M4153 3115 c0 -8 4 -12 9 -9 5 3 6 10 3 15 -9 13 -12 11 -12 -6z"/>
<path d="M996 3078 c3 -5 10 -6 15 -3 13 9 11 12 -6 12 -8 0 -12 -4 -9 -9z"/>
<path d="M4230 2936 c0 -2 8 -10 18 -17 15 -13 16 -12 3 4 -13 16 -21 21 -21
13z"/>
<path d="M4266 2802 c-3 -5 1 -9 9 -9 8 0 12 4 9 9 -3 4 -7 8 -9 8 -2 0 -6 -4
-9 -8z"/>
<path d="M4210 2699 c0 -5 5 -7 10 -4 6 3 10 8 10 11 0 2 -4 4 -10 4 -5 0 -10
-5 -10 -11z"/>
<path d="M993 2635 c0 -8 4 -12 9 -9 5 3 6 10 3 15 -9 13 -12 11 -12 -6z"/>
<path d="M4267 2279 c7 -7 15 -10 18 -7 3 3 -2 9 -12 12 -14 6 -15 5 -6 -5z"/>
<path d="M4235 2201 c-3 -5 -2 -12 3 -15 5 -3 9 1 9 9 0 17 -3 19 -12 6z"/>
<path d="M1210 658 c0 -4 4 -8 9 -8 6 0 12 4 15 8 3 5 -1 9 -9 9 -8 0 -15 -4
-15 -9z"/>
<path d="M1334 645 c-4 -8 -10 -15 -16 -15 -5 0 -6 5 -3 10 3 6 2 10 -3 10 -6
0 -9 -12 -8 -26 l1 -25 23 26 c15 18 22 22 22 11 0 -9 5 -16 10 -16 7 0 7 6 0
20 -13 24 -19 25 -26 5z"/>
<path d="M1384 633 c9 -17 22 -35 28 -39 10 -6 11 -4 1 7 -18 18 -16 34 2 19
10 -9 15 -9 15 -1 0 10 -13 15 -25 9 -2 -2 -11 6 -20 17 -15 18 -15 17 -1 -12z"/>
<path d="M1150 640 c0 -5 5 -10 10 -10 6 0 10 5 10 10 0 6 -4 10 -10 10 -5 0
-10 -4 -10 -10z"/>
<path d="M1445 641 c-3 -5 4 -16 15 -24 11 -7 17 -17 13 -21 -4 -4 1 -4 11 0
18 7 17 8 -1 18 -11 6 -18 17 -16 24 5 14 -13 17 -22 3z"/>
<path d="M1480 640 c0 -5 5 -10 10 -10 6 0 10 5 10 10 0 6 -4 10 -10 10 -5 0
-10 -4 -10 -10z"/>
<path d="M1270 620 c0 -5 5 -10 10 -10 6 0 10 5 10 10 0 6 -4 10 -10 10 -5 0
-10 -4 -10 -10z"/>
<path d="M1736 616 c4 -12 0 -14 -20 -10 -14 2 -26 0 -26 -5 0 -5 8 -8 18 -6
9 1 22 -1 27 -6 7 -5 11 -1 12 11 1 11 -2 22 -8 25 -5 3 -6 -1 -3 -9z"/>
<path d="M1874 601 c0 -16 4 -27 8 -25 4 2 5 14 3 26 -7 32 -13 32 -11 -1z"/>
<path d="M1935 621 c-3 -7 0 -8 9 -5 11 4 14 0 11 -15 -2 -12 0 -19 5 -16 11
7 6 38 -7 42 -6 2 -14 -1 -18 -6z"/>
<path d="M2000 626 c0 -2 7 -7 16 -10 8 -3 12 -2 9 4 -6 10 -25 14 -25 6z"/>
<path d="M3793 604 c0 -17 2 -22 7 -13 5 6 6 18 3 26 -8 19 -10 16 -10 -13z"/>
<path d="M2216 607 c3 -10 9 -15 12 -12 3 3 0 11 -7 18 -10 9 -11 8 -5 -6z"/>
<path d="M2313 605 c0 -8 4 -12 9 -9 5 3 6 10 3 15 -9 13 -12 11 -12 -6z"/>
<path d="M2809 603 c-13 -16 -12 -17 4 -4 16 13 21 21 13 21 -2 0 -10 -8 -17
-17z"/>
<path d="M3093 605 c0 -7 6 -11 14 -8 7 3 13 6 13 8 0 2 -6 5 -13 8 -8 3 -14
-1 -14 -8z"/>
<path d="M3300 614 c0 -13 18 -39 24 -34 2 3 -2 14 -10 24 -8 11 -14 16 -14
10z"/>
<path d="M3388 613 c7 -3 16 -2 19 1 4 3 -2 6 -13 5 -11 0 -14 -3 -6 -6z"/>
<path d="M3421 613 c-1 -6 4 -15 9 -18 6 -4 8 -10 6 -14 -3 -4 -1 -13 4 -20 5
-9 7 -3 7 17 -1 17 -5 28 -9 26 -3 -2 -9 2 -11 8 -4 9 -6 10 -6 1z"/>
<path d="M3508 613 c7 -3 16 -2 19 1 4 3 -2 6 -13 5 -11 0 -14 -3 -6 -6z"/>
<path d="M3537 605 c-4 -8 -3 -16 1 -19 4 -3 9 4 9 15 2 23 -3 25 -10 4z"/>
<path d="M3565 609 c-11 -16 -1 -19 13 -3 7 8 8 14 3 14 -5 0 -13 -5 -16 -11z"/>
<path d="M3743 613 c-22 -8 -14 -22 8 -18 12 3 24 6 26 8 6 7 -21 14 -34 10z"/>
<path d="M3950 611 c0 -7 -4 -9 -10 -6 -6 4 -7 -1 -3 -11 6 -15 7 -15 15 1 6
9 7 19 4 22 -3 4 -6 1 -6 -6z"/>
<path d="M3973 599 c-2 -23 3 -25 10 -4 4 8 3 16 -1 19 -4 3 -9 -4 -9 -15z"/>
<path d="M4030 609 c0 -5 5 -7 10 -4 6 3 10 8 10 11 0 2 -4 4 -10 4 -5 0 -10
-5 -10 -11z"/>
<path d="M1188 603 c7 -3 16 -2 19 1 4 3 -2 6 -13 5 -11 0 -14 -3 -6 -6z"/>
<path d="M1330 599 c0 -4 10 -6 21 -4 32 6 34 13 4 13 -14 0 -25 -4 -25 -9z"/>
<path d="M1431 592 c-7 -14 -6 -19 4 -19 7 0 11 7 7 15 -4 11 -1 13 8 7 9 -5
11 -4 6 3 -10 16 -14 15 -25 -6z"/>
<path d="M1615 600 c-3 -5 -1 -10 4 -10 6 0 11 5 11 10 0 6 -2 10 -4 10 -3 0
-8 -4 -11 -10z"/>
<path d="M1647 599 c7 -7 15 -10 18 -7 3 3 -2 9 -12 12 -14 6 -15 5 -6 -5z"/>
<path d="M1776 594 c-5 -14 -4 -15 9 -4 17 14 19 20 6 20 -5 0 -12 -7 -15 -16z"/>
<path d="M1810 602 c0 -4 10 -9 22 -9 18 -2 20 0 8 7 -18 12 -30 13 -30 2z"/>
<path d="M2056 598 c3 -5 10 -6 15 -3 13 9 11 12 -6 12 -8 0 -12 -4 -9 -9z"/>
<path d="M2410 599 c0 -5 5 -7 10 -4 6 3 10 8 10 11 0 2 -4 4 -10 4 -5 0 -10
-5 -10 -11z"/>
<path d="M2516 593 c-6 -14 -5 -15 5 -6 7 7 10 15 7 18 -3 3 -9 -2 -12 -12z"/>
<path d="M2974 602 c4 -3 14 -7 22 -8 9 -1 13 0 10 4 -4 3 -14 7 -22 8 -9 1
-13 0 -10 -4z"/>
<path d="M3190 601 c0 -6 4 -13 10 -16 6 -3 7 1 4 9 -7 18 -14 21 -14 7z"/>
<path d="M3246 602 c-3 -5 1 -9 9 -9 8 0 15 4 15 9 0 4 -4 8 -9 8 -6 0 -12 -4
-15 -8z"/>
<path d="M3348 603 c10 -4 10 -8 0 -21 -12 -15 -11 -16 5 -3 9 7 17 17 17 22
0 5 -8 9 -17 8 -12 0 -13 -2 -5 -6z"/>
<path d="M3470 600 c-12 -7 -10 -9 7 -7 12 0 19 5 17 9 -6 10 -6 10 -24 -2z"/>
<path d="M3630 600 c0 -6 7 -10 15 -10 8 0 15 2 15 4 0 2 -7 6 -15 10 -8 3
-15 1 -15 -4z"/>
<path d="M1155 591 c-3 -5 -2 -12 3 -15 5 -3 9 1 9 9 0 17 -3 19 -12 6z"/>
<path d="M1514 586 c1 -8 5 -18 8 -22 4 -3 5 1 4 10 -1 8 -5 18 -8 22 -4 3 -5
-1 -4 -10z"/>
<path d="M3587 586 c-5 -11 -3 -15 5 -10 8 5 9 1 5 -12 -7 -18 -6 -18 6 -2 8
10 18 14 22 10 5 -4 5 -1 1 6 -4 7 -11 10 -16 7 -4 -3 -10 0 -12 7 -3 7 -7 5
-11 -6z"/>
<path d="M1185 580 c-3 -6 1 -7 9 -4 18 7 21 14 7 14 -6 0 -13 -4 -16 -10z"/>
<path d="M1313 569 c-2 -23 3 -25 10 -4 4 8 3 16 -1 19 -4 3 -9 -4 -9 -15z"/>
<path d="M2076 582 c-3 -5 1 -9 9 -9 8 0 12 4 9 9 -3 4 -7 8 -9 8 -2 0 -6 -4
-9 -8z"/>
<path d="M2165 580 c-3 -6 1 -7 9 -4 18 7 21 14 7 14 -6 0 -13 -4 -16 -10z"/>
<path d="M2916 582 c-3 -5 1 -9 9 -9 8 0 12 4 9 9 -3 4 -7 8 -9 8 -2 0 -6 -4
-9 -8z"/>
<path d="M3050 579 c0 -5 5 -7 10 -4 6 3 10 8 10 11 0 2 -4 4 -10 4 -5 0 -10
-5 -10 -11z"/>
<path d="M3699 588 c0 -2 -2 -13 -3 -26 -3 -21 -2 -21 16 -5 22 20 23 24 1 16
-11 -4 -14 -3 -9 5 4 7 5 12 2 12 -3 0 -6 -1 -7 -2z"/>
<path d="M3854 582 c7 -12 -5 -16 -31 -13 -7 1 -13 -4 -13 -10 0 -7 3 -9 7 -6
3 4 13 1 22 -5 9 -7 13 -8 9 -4 -4 5 0 14 9 21 13 9 13 14 3 20 -9 5 -11 4 -6
-3z"/>
<path d="M3910 580 c0 -5 5 -10 10 -10 6 0 10 5 10 10 0 6 -4 10 -10 10 -5 0
-10 -4 -10 -10z"/>
<path d="M3990 580 c0 -5 5 -10 11 -10 5 0 7 5 4 10 -3 6 -8 10 -11 10 -2 0
-4 -4 -4 -10z"/>
<path d="M1291 564 c0 -11 3 -14 6 -6 3 7 2 16 -1 19 -3 4 -6 -2 -5 -13z"/>
<path d="M1395 569 c-4 -6 -5 -12 -2 -15 2 -3 7 2 10 11 7 17 1 20 -8 4z"/>
<path d="M2436 567 c3 -10 9 -15 12 -12 3 3 0 11 -7 18 -10 9 -11 8 -5 -6z"/>
<path d="M3375 571 c-3 -5 -2 -12 3 -15 5 -3 9 1 9 9 0 17 -3 19 -12 6z"/>
<path d="M3475 569 c-4 -6 -5 -12 -2 -15 2 -3 7 2 10 11 7 17 1 20 -8 4z"/>
<path d="M1636 558 c3 -5 10 -6 15 -3 13 9 11 12 -6 12 -8 0 -12 -4 -9 -9z"/>
<path d="M1810 559 c0 -5 5 -7 10 -4 6 3 10 8 10 11 0 2 -4 4 -10 4 -5 0 -10
-5 -10 -11z"/>
<path d="M3547 559 c7 -7 15 -10 18 -7 3 3 -2 9 -12 12 -14 6 -15 5 -6 -5z"/>
<path d="M3759 568 c-5 -18 -6 -38 -1 -34 7 8 12 36 6 36 -2 0 -4 -1 -5 -2z"/>
<path d="M3934 558 c-4 -7 -4 -10 1 -6 4 4 15 2 24 -5 14 -11 14 -10 2 6 -16
20 -18 21 -27 5z"/>
<path d="M1253 545 c0 -8 4 -12 9 -9 5 3 6 10 3 15 -9 13 -12 11 -12 -6z"/>
<path d="M1520 540 c-8 -5 -10 -10 -5 -10 6 0 17 5 25 10 8 5 11 10 5 10 -5 0
-17 -5 -25 -10z"/>
<path d="M3495 540 c3 -5 8 -10 11 -10 2 0 4 5 4 10 0 6 -5 10 -11 10 -5 0 -7
-4 -4 -10z"/>
<path d="M4045 540 c-3 -6 1 -7 9 -4 18 7 21 14 7 14 -6 0 -13 -4 -16 -10z"/>
<path d="M3629 523 c-13 -16 -12 -17 4 -4 16 13 21 21 13 21 -2 0 -10 -8 -17
-17z"/>
<path d="M1830 520 c0 -5 5 -10 11 -10 5 0 7 5 4 10 -3 6 -8 10 -11 10 -2 0
-4 -4 -4 -10z"/>
<path d="M3396 518 c3 -5 10 -6 15 -3 13 9 11 12 -6 12 -8 0 -12 -4 -9 -9z"/>
</g>
</svg>
